{"buffers":[{"uri":"body v1.bin","byteLength":1672736}],"asset":{"version":"2.0","generator":"gltfpack 0.16"},"bufferViews":[{"buffer":0,"byteOffset":0,"byteLength":622872,"byteStride":12,"target":34962},{"buffer":0,"byteOffset":622872,"byteLength":622872,"byteStride":12,"target":34962},{"buffer":0,"byteOffset":1245744,"byteLength":426990,"target":34963}],"accessors":[{"bufferView":0,"byteOffset":0,"componentType":5126,"count":21,"type":"VEC3","min":[-34.0298691,43.0483093,-1.5],"max":[15.1482897,71.6317596,-1.5]},{"bufferView":1,"byteOffset":0,"componentType":5126,"count":21,"type":"VEC3"},{"bufferView":2,"byteOffset":0,"componentType":5123,"count":57,"type":"SCALAR"},{"bufferView":0,"byteOffset":252,"componentType":5126,"count":1274,"type":"VEC3","min":[-44.4957085,-67.1902924,-1],"max":[25.5961399,81.6317596,16]},{"bufferView":1,"byteOffset":252,"componentType":5126,"count":1274,"type":"VEC3"},{"bufferView":2,"byteOffset":114,"componentType":5123,"count":6732,"type":"SCALAR"},{"bufferView":0,"byteOffset":15540,"componentType":5126,"count":33370,"type":"VEC3","min":[-43.4957085,-66.1902924,-5],"max":[24.5961399,80.6317596,15]},{"bufferView":1,"byteOffset":15540,"componentType":5126,"count":33370,"type":"VEC3"},{"bufferView":2,"byteOffset":13578,"componentType":5123,"count":148302,"type":"SCALAR"},{"bufferView":0,"byteOffset":415980,"componentType":5126,"count":1427,"type":"VEC3","min":[-36.9853706,-2.07543993,-1.5],"max":[2.12927008,22.7200508,0]},{"bufferView":1,"byteOffset":415980,"componentType":5126,"count":1427,"type":"VEC3"},{"bufferView":2,"byteOffset":310182,"componentType":5123,"count":4185,"type":"SCALAR"},{"bufferView":0,"byteOffset":433104,"componentType":5126,"count":1313,"type":"VEC3","min":[-31.2375908,-55.6430283,-1.5],"max":[18.8310604,24.7165604,1.5]},{"bufferView":1,"byteOffset":433104,"componentType":5126,"count":1313,"type":"VEC3"},{"bufferView":2,"byteOffset":318552,"componentType":5123,"count":4398,"type":"SCALAR"},{"bufferView":0,"byteOffset":448860,"componentType":5126,"count":7334,"type":"VEC3","min":[-36.6492691,-57.4931183,-3],"max":[17.3868294,41.7969208,0]},{"bufferView":1,"byteOffset":448860,"componentType":5126,"count":7334,"type":"VEC3"},{"bufferView":2,"byteOffset":327348,"componentType":5123,"count":21192,"type":"SCALAR"},{"bufferView":0,"byteOffset":536868,"componentType":5126,"count":1465,"type":"VEC3","min":[-35.3644409,-58.5314217,-1.5],"max":[16.4828606,72.8652802,1.5]},{"bufferView":1,"byteOffset":536868,"componentType":5126,"count":1465,"type":"VEC3"},{"bufferView":2,"byteOffset":369732,"componentType":5123,"count":5013,"type":"SCALAR"},{"bufferView":0,"byteOffset":554448,"componentType":5126,"count":392,"type":"VEC3","min":[-37.1399803,15.53549,-1.5],"max":[-25.1318893,24.7165604,1.5]},{"bufferView":1,"byteOffset":554448,"componentType":5126,"count":392,"type":"VEC3"},{"bufferView":2,"byteOffset":379758,"componentType":5123,"count":1692,"type":"SCALAR"},{"bufferView":0,"byteOffset":559152,"componentType":5126,"count":2655,"type":"VEC3","min":[-23.2631207,-63.9958115,-13.5],"max":[-12.2631197,-42.0867195,1.5]},{"bufferView":1,"byteOffset":559152,"componentType":5126,"count":2655,"type":"VEC3"},{"bufferView":2,"byteOffset":383142,"componentType":5123,"count":10962,"type":"SCALAR"},{"bufferView":0,"byteOffset":591012,"componentType":5126,"count":2655,"type":"VEC3","min":[-35.1616783,-52.0972519,-13.8500004],"max":[-24.1616783,-30.1881599,1.14999998]},{"bufferView":1,"byteOffset":591012,"componentType":5126,"count":2655,"type":"VEC3"},{"bufferView":2,"byteOffset":405066,"componentType":5123,"count":10962,"type":"SCALAR"}],"materials":[{"pbrMetallicRoughness":{"baseColorFactor":[0.752941191,0.752941191,0.752941191,1],"metallicFactor":0},"doubleSided":true},{"pbrMetallicRoughness":{"baseColorFactor":[0.752941191,0,0,1],"metallicFactor":0},"doubleSided":true},{"pbrMetallicRoughness":{"baseColorFactor":[0.250980407,0.250980407,0.250980407,1],"metallicFactor":0},"doubleSided":true},{"pbrMetallicRoughness":{"baseColorFactor":[0,1,1,1],"metallicFactor":0},"doubleSided":true},{"pbrMetallicRoughness":{"baseColorFactor":[0.909803927,0.443137258,0.0313725509,1],"metallicFactor":0},"doubleSided":true},{"pbrMetallicRoughness":{"metallicFactor":0},"doubleSided":true},{"pbrMetallicRoughness":{"baseColorFactor":[0.627451003,0.627451003,0.627451003,1],"metallicFactor":0},"doubleSided":true},{"pbrMetallicRoughness":{"baseColorFactor":[0,0.752941191,0.752941191,1],"metallicFactor":0},"doubleSided":true},{"pbrMetallicRoughness":{"baseColorFactor":[0,0,0,1],"metallicFactor":0},"doubleSided":true},{"pbrMetallicRoughness":{"baseColorFactor":[1,0,0,1],"metallicFactor":0},"doubleSided":true}],"meshes":[{"primitives":[{"attributes":{"POSITION":0,"NORMAL":1},"mode":4,"indices":2,"material":0}]},{"primitives":[{"attributes":{"POSITION":3,"NORMAL":4},"mode":4,"indices":5,"material":1}]},{"primitives":[{"attributes":{"POSITION":6,"NORMAL":7},"mode":4,"indices":8,"material":2}]},{"primitives":[{"attributes":{"POSITION":9,"NORMAL":10},"mode":4,"indices":11,"material":3}]},{"primitives":[{"attributes":{"POSITION":12,"NORMAL":13},"mode":4,"indices":14,"material":4}]},{"primitives":[{"attributes":{"POSITION":15,"NORMAL":16},"mode":4,"indices":17,"material":5}]},{"primitives":[{"attributes":{"POSITION":18,"NORMAL":19},"mode":4,"indices":20,"material":6}]},{"primitives":[{"attributes":{"POSITION":21,"NORMAL":22},"mode":4,"indices":23,"material":7}]},{"primitives":[{"attributes":{"POSITION":24,"NORMAL":25},"mode":4,"indices":26,"material":8}]},{"primitives":[{"attributes":{"POSITION":27,"NORMAL":28},"mode":4,"indices":29,"material":9}]}],"nodes":[{"mesh":0},{"mesh":1},{"mesh":2},{"mesh":3},{"mesh":4},{"mesh":5},{"mesh":6},{"mesh":7},{"mesh":8},{"mesh":9},{"children":[0]},{"children":[1]},{"children":[2]},{"children":[3]},{"children":[4]},{"children":[5]},{"children":[6]},{"children":[7]},{"name":"Componente1","children":[8]},{"name":"Componente2","children":[9]}],"scenes":[{"nodes":[10,11,12,13,14,15,16,17,18,19]}]}